/* XPM */
static char *_614591432974[] = {
/* columns rows colors chars-per-pixel */
"64 64 230 2 ",
"   c #0C1215",
".  c #0E161B",
"X  c #0F181D",
"o  c #121315",
"O  c #13161A",
"+  c #13191D",
"@  c #1B1A1C",
"#  c #181516",
"$  c #0D0E11",
"%  c #211D1B",
"&  c #25221D",
"*  c #151C22",
"=  c #1A1E24",
"-  c #161F29",
";  c #0B1820",
":  c #231E23",
">  c #172026",
",  c #1B2126",
"<  c #1C232A",
"1  c #1F282D",
"2  c #15212A",
"3  c #1E2933",
"4  c #242423",
"5  c #2B2622",
"6  c #2C2B26",
"7  c #23252C",
"8  c #242A2D",
"9  c #2D2C2B",
"0  c #2A272B",
"q  c #322B26",
"w  c #342D2A",
"e  c #3A2C26",
"r  c #34322D",
"t  c #3C322C",
"y  c #232B34",
"u  c #2A2D33",
"i  c #252E38",
"p  c #272A35",
"a  c #273036",
"s  c #2B3235",
"d  c #26323B",
"f  c #2A333C",
"g  c #2E393C",
"h  c #343233",
"j  c #32353B",
"k  c #32393D",
"l  c #3B3937",
"z  c #302F33",
"x  c #42352D",
"c  c #49382D",
"v  c #453A33",
"b  c #463B37",
"n  c #523D31",
"m  c #39403C",
"M  c #48423C",
"N  c #57463B",
"B  c #664F3F",
"V  c #263541",
"C  c #2A3742",
"Z  c #2D3A45",
"A  c #2E3D49",
"S  c #323D44",
"D  c #323E49",
"F  c #383B43",
"G  c #2F414C",
"H  c #33414B",
"J  c #3B454D",
"K  c #3D494F",
"L  c #384145",
"P  c #3C4953",
"I  c #3A4854",
"U  c #434A4D",
"Y  c #474847",
"T  c #574B47",
"R  c #4B514D",
"E  c #54524C",
"W  c #424C55",
"Q  c #464C54",
"!  c #4C5254",
"~  c #44525A",
"^  c #4B535B",
"/  c #485459",
"(  c #52565B",
")  c #565758",
"_  c #544D51",
"`  c #67544A",
"'  c #695A57",
"]  c #735B55",
"[  c #6A5549",
"{  c #5D625D",
"}  c #69635C",
"|  c #786558",
" . c #4A5B68",
".. c #545C64",
"X. c #635F63",
"o. c #4E616C",
"O. c #5B646D",
"+. c #556269",
"@. c #526371",
"#. c #5A6A73",
"$. c #676866",
"%. c #766B63",
"&. c #77736D",
"*. c #666C73",
"=. c #6B7277",
"-. c #787877",
";. c #6E736D",
":. c #836C5E",
">. c #866B65",
",. c #966C6A",
"<. c #887468",
"1. c #95776D",
"2. c #887874",
"3. c #997A75",
"4. c #A47C79",
"5. c #A37876",
"6. c #AB7378",
"7. c #8B5F5C",
"8. c #7C827C",
"9. c #8A827A",
"0. c #99857A",
"q. c #A4827C",
"w. c #A7887C",
"e. c #7A7E85",
"r. c #B37E83",
"t. c #7C8387",
"y. c #878786",
"u. c #988B87",
"i. c #95938A",
"p. c #8A8D91",
"a. c #8B9598",
"s. c #969897",
"d. c #929391",
"f. c #AB8582",
"g. c #AC8A85",
"h. c #A68A85",
"j. c #B38C8B",
"k. c #B78C8A",
"l. c #A89588",
"z. c #B6968C",
"x. c #A99A96",
"c. c #BC9593",
"v. c #BC9C99",
"b. c #B79894",
"n. c #B88E90",
"m. c #9CA29C",
"M. c #A6A59C",
"N. c #B9A49A",
"B. c #999DA2",
"V. c #A8A8A6",
"C. c #B7A9A4",
"Z. c #ACB2A9",
"A. c #B7B6AA",
"S. c #B7B9B6",
"D. c #ADB1B3",
"F. c #A19FA2",
"G. c #C49D9B",
"H. c #C49798",
"J. c #C48C92",
"K. c #C5A69C",
"L. c #D09EA2",
"P. c #CBACA5",
"I. c #CBADAA",
"U. c #C7A6A3",
"Y. c #D2AAA9",
"T. c #CDB2AC",
"R. c #C9B6A9",
"E. c #D2B8AE",
"W. c #C7BBB5",
"Q. c #D4BCB4",
"!. c #D7B9B7",
"~. c #D7AFB0",
"^. c #E1BABA",
"/. c #BDC3B5",
"(. c #C3C5B5",
"). c #CCC5BB",
"_. c #CACBBB",
"`. c #C5C7BB",
"'. c #D5C3BB",
"]. c #DAC3BC",
"[. c #D8C5B9",
"{. c #E1C2BF",
"}. c #AFBDC0",
"|. c #C4BFC3",
" X c #BCC4C3",
".X c #CBCDC3",
"XX c #C5CDCB",
"oX c #CACDCB",
"OX c #C5C7C5",
"+X c #DCC6C2",
"@X c #DDCAC4",
"#X c #DDCECA",
"$X c #D4CAC6",
"%X c #CBD2CE",
"&X c #C8D1CB",
"*X c #DBD3CC",
"=X c #D4D2CA",
"-X c #CDD5D2",
";X c #CED8D5",
":X c #CBD6D5",
">X c #D1D5D3",
",X c #D2D9D5",
"<X c #D9D9D7",
"1X c #D4CDD1",
"2X c #E2C5C2",
"3X c #E3CCC6",
"4X c #E4CDCA",
"5X c #EACCCA",
"6X c #E4D2CC",
"7X c #EAD1CD",
"8X c #E5D8CB",
"9X c #E4D5D2",
"0X c #EBD5D2",
"qX c #E5DBD4",
"wX c #EBDBD5",
"eX c #E4DCD9",
"rX c #ECDDDA",
"tX c #F3DAD6",
"yX c #F2DDDB",
"uX c #F1D6D2",
"iX c #ECCED0",
"pX c #E6E2DC",
"aX c #EBE2DC",
"sX c #E9E3D8",
"dX c #F3E1DD",
"fX c #E8DEE0",
"gX c #DEE8EA",
"hX c #ECE4E2",
"jX c #E9E8E5",
"kX c #F3E5E4",
/* pixels */
"-X%X-X-X%X-X-X-X-X>X-X-X%X%X>X,X;X;X;X-X&X-X;X;X;X;X;X:XgX Xt.t.t.B.t.=.#.#.#.O.#.#.#.#.#.#.#.o.#.@.@.@.@.@.o. .@.o. .o.@.@. . .",
"%X-X-X-X-X%X%X-X>X-X>X-X>X-X>X-X;X;X&X-X=X-X-X,X-X-X;X:XgX/.B.t.B.B.m.a.a.a.t.*.O.+.o. .o.o.o.+.@.@.o.o.@.@.@.o.o. . . . .~ ~ I ",
"&X-X-X%X-X-X-X-X-X;X-X;X-X-X-X%X;X;X:X:X-X-X,X,X%X%X;X;XgX/.a.t.t.t.t.p.p.t.=. .P H Z Z G g Z G d G G G A A H H I I I G A A V V ",
"-X-X-X-X-X-X-X-X-X-X;X-X-X-X-X;X;X:X:X:X-X&X&X&X-X&X-X%XgX/.t.{ I I  ./ ..^ P Z L s y d a 1 2 ; 2 2 2 2 2 2 3 3 A A V V V V 3 3 ",
"-X-X>X-X-X-X-X-X&X-X;X;X-X:X;X,X:X:X:X:X;X;X;X;X,X%X;X,XjX/.#.m s s k k g k k k F f p s f 7 = * ; 2 2 > 2 2 3 y S S S C V d 3 3 ",
"-X-X-X-X-X-X-X-X&X&X&X;X-X&X X XZ.m.}.}. X/.&X_.XXXX&X;XgXV.{ 1 8 s g k g S S F S u 8 y p 7 7 7 3 3 3 3 3 a d f D D S S V 3 d 3 ",
">X>X-X>X-X-X;X-X:X&X&X:X:X Xm.t.8.8.8.8.8.8.8.8.d.p.a.m.B.t...m g g g k S S S S F f f u u j C F m G g Z Z S S S S S F Z f i i i ",
"-X-X-X-X-X;X-X:X,X-X&X:X:XZ.*.m K I I R R  .R R R K / K o.P K m J L Z H H J F S i C F C f f C p d d d d g Z f d S S D S S S Z A ",
":X:X:X:X-X;X-X,X;X;X>XXXZ.s.R Y R E { { { 8.{ { R U K L L L L S m G m G D S D D Z C C C V V V p g d d d d d d d C C C Z Z Z Z G ",
":X:X%X:X>X%X%X,X-X%X/.m.-.-.R E E { 8.} } } 8.{ { ! R L k k S S G G i d C V D D A A C C A V V V V d V d d C d d V f C Z g Z g Z ",
":XXX%X:X,XoX%X>X%XZ.d.&.R E l E B | 8.| | | | { ;.$.} ! U L L k G L d G D Z D Z A A A C V V V V V V d V V V C V C V C C Z C Z Z ",
":XXX%X-X,X-X>X%XS.;.) ) M t w M B [ | :.8.| 8.| 2.&.&.;.$.} ) _ L / K K I W Q A A A A C V A V V Z V V V Z Z C C C C C C Z Z Z Z ",
":X&X:X&X%X<X>XS.9.Y b E Y e q v N | :.:.0.0.0.w.0.0.9.i.9.9.-.&.$.{ ! ( ! W ^ ~ J D D D C C A A Z Z V Z Z C Z Z Z A Z Z A Z A D ",
"-X:X;X&X&X<X.Xd.R l l v M e t c B [ 9.0.w.R.R.[.R.A.A.M.M.x.i.i.9.;.) -.-.) _ ( Q Q I D D A D D G Z Z G Z A A Z H H H S G G A H ",
";X:X;X:X&XXXV.} r r l t b e x c B | 9.w.(.8X8X8X8X8X[._.W.R.A.C.M.u.r.V.D.p.*.( ( ^ Q I D D D D Z L G G S Z D S H D H H H H H H ",
";X X%X:XXXS.8.m r 6 w e T e e x B [ 8.w.R.[.8X8XtX8XsXsXwX8X*X$X).W.B.S.$XW.s.X.( ( Q I I D D D H Z G L H H H S H H S H H A H S ",
" X;X X;X%Xt.E m r 9 q r x x x c N [ | w.R.[.8X8XwXwXsXsXsXwXqXsXqX<X*XW.W.=XOXs.( _ D I D A I D G G H H H G g H H H G H G G G G ",
":X;X&X-XS.;.M r 9 9 q r t t c c n B | w.R.[.8X8XwXwXsXdXaXwXrXsXqX*X*X*X*XqX*XW.s.-.^ D  .I I A H L H H G G H J K J K K J G G G ",
";X:X&X&Xs.R m 6 w 9 q w t x x c N B :.w.(.[.*X8XwXsXrXaXsXrXrXrX*X_.*XwXwXqXfX<X<XS.e.e...D D I H L H H G H I P P P ~ P I I I G ",
";X&X-X/.;.m 6 & 9 9 q e t e c c B B 0.N.[.[.[.8XwXsXdXsXaXaXwXqX$X).$XwX0XqXrXeXkX<X}.D.r.W D D J H G G G G I ~ / ~ ~ P I I I I ",
"-X&X&XZ.E 6 6 & 6 6 9 w e t c N [ :.w.R.[.[.[.6XwXsXdXwXrXrXwX9XQ.'.#X0X0XeXrXeXfXfX<X<XD.O.D A H H G G Z G I P ~ ~ ~ ~ P P P  .",
"&X&X_.i.M 6 6 & 5 5 9 w t c b N [ :.l.R.[.[.@X8XwXrXwXqXwXrXqX#XR.$XiX9X#X9X0XeXfXhXeX:Xs.^ F D H H G H Z G I  .P / P P P ~ P P ",
"&X=X_.8.m 6 4 & 5 5 q r t x b N | <.z.[.[.[.6X6XwXwXwX6X9XrX9X@XC.].7X7X].!.+XeXfXkXfXoXs.( U P H H H H G G I P P P P ~ P P P P ",
"=X,X/.} 6 r & @ 4 5 q w t x N B | 0.K.Q.[.[.6X6X0XwXwX6X9XwX9X+XN.!.tXuX'.I.!.eXfXkXfXfX1Xs.O.F J H H H H G I I P P P P P P I P ",
".X-XA.R r r % & & & q q x c N ` :.w.K.R.[.{.8X2X8X8X3X3X6X0X9XW.C.2X2X4XI.b.'.iXyXhXhXfXkXeXF.X.J I F F I D A ~ ~ P P P K K P P ",
"&X=XA.M r q & & & q q e c n T ] 0.w.K.R.[.[.3X8X8X5X3X3X#X9X9X!.I.^.E.T.v.x.'.#XfXyXyXfXkXkX1XD.e.Q F J D A ~ ~ ~ ~ W U U K P P ",
"-X-XZ.M r 6 & & & q e t c N B :.w.K.R.E.[.[.8X[.8X3X3X3X@XiX0X+X].2XU.b.x.v.$X4XfXyXyXfXkXkXkXfXI.e._ J D D W ~ ~ P W P K K K K ",
"%X&XZ.m 6 6 & 6 q e t t n B :.0.w.K.E.E.E.[.[.8X[.[.3X[.@XiX0XiX4X4XP.b.v.T.9XiX9X0XyXyXkXfXfXkXiXD.*.J P W J ~ P ~ W W K K J K ",
"-XXXZ.M 4 4 & & q t x c N [ :.w.K.R.R.[.[.[.[.[.[.[.@X4X4XiXyX0X7X7X!.I.T.].iX9X0X0XtXyXkXrXrXkXfXfXV.X.J J J W ~ W P K P K P K ",
"&X&XD.Y 4 & & & q t c M ` | 0.w.w.K.R.[.[.[.[.[.'.+X#XiXiX9X0XiXuXuX7X2X4X4X0X0XrX0X0XtXuXtXtXyXfXfXiXB.Q Z Q K / W / / W W P P ",
" XXX}.! & @ & & q x N ` ] <.5.w.N.K.R.E.[.[.[.E.!.Q.#X4X4X4X+X'.].].+X2X4XiX0X0XwX0XiX4X4XiXiX9XfX0XkX1Xr.G U Q / / / / / / / / ",
"&X:XOX) 6 & & & q x N ' :.1.0.w.w.K.R.R.E.E.E.E.!.Q.].3X2X!.~.U.U.N.U.!.!.4X4X0X@X4X4X3X3XiXuXuXyXfXiX<XS.$.F ^ / / ../ ../  ./ ",
"&X&X;Xt.6 > 4 & q v T | :.1.0.w.w.K.K.K.P.R.T.I.I.!.].!.I.v.n.f.0.h.j.z.U.~.^.5X3XuX3X'.].4XiXiX4XiX0XrX*Xs...Y ^ ( ..Q U P W Q ",
"%X.X;Xm.R 6 > & 5 v T ] :.1.q.0.w.w.z.K.K.P.P.P.I.I.I.v.b.j.f.4.3.3.5.4.k.n.K.Y.{.7X7X].!.3XiX2XI.2X0XyXwXS.2.! ^ ^ U k u g L L ",
"S.A././.8.m & & 6 t N B :.:.9.0.w.w.z.K.K.E.P.P.I.G.b.g.j.b.j.3.3.3.5.3.5.5.f.H.E.!.5X2X!.2X5X^.c.^.tXdXsXqXC.$.l k 8 = * * 1 a ",
"M.M.m./.m.$.r 6 r t M B B | :.0.w.w.z.K.E.!.E.U.I.b.g.g.G.I.c.1.4.f.f.f.5.,.3.j.H.G.!.^.~.!.^.J.H.!.tXtXwXkX1Xd.j 4 @ + + . * 8 ",
"/.Z.m.m.m.8.m 6 9 r v M N } <.0.w.w.A.[.3XiX].~.U.b.n.c.K.Y.c.,.w.j.z.k.5.7.,.4.f.w.G.~.Y.Y.L.r.H.!.uXyX0XkXeXS.' h o   + ; = f ",
"Z./.Z.Z.Z.i.} m 6 v M c N >.w.l.M.R._.[.tXyX7X].v.b.v.G.c.g.4.,.f.H.G.H.4.,.,.4.w.4.k.Y.L.L.J.6.H.Y.5XtX0XdXsX=XV.$., $   . - p ",
"Z./././././.m.$.t M N N | 9.l.x.R._.8X8XrXrXtXiXI.v.v.v.f.5.4.q.c.K.L.G.K.z.w.k.w.4.w.J.J.r.r.J.H.~.2X5X0XwX8X*X<XM.) 8 O * - 3 ",
"(.(././.A././.i.E v M } 2.0.i.N.(._.sXsX9X9XyXkX4XC.b.c.f.5.f.k.G.K.K.G.Y.K.H.k.k.q.q.k.k.6.,.J.Y.^.!.!.6X8X*X*XaX>XV.) y < p 7 ",
"_.(._.(.(.(.(.(.i.} | 9.9.9.x.R.8XqXaXhXaXaXhXdX0X4X!.v.f.f.n.J.G.Y.Y.L.Y.Y.K.z.w.w.f.w.,.7.6.J.~.!.!.$X4X@X+X1X<XeXoXs._ p p p ",
"_.(._._.(.(.(.(.R.0.9.9.u.l.A.'.qXsXaXaXaXpXaXjXeXqX4X!.U.j.k.n.L.H.G.Y.Y.P.z.g.w.q.f.q.,.,.5.k.Y.U.G.I.'.'.].9XsXpX$Xy.U 7 y y ",
"(.(._._._._.(._._.M.9.0.l.A.+X9XsXaXhXjXjXpXpXpXpXaX0XiX].v.f.k.H.n.H.G.Y.U.b.j.q.q.k.j.3.,.f.b.H.H.v.I.E.W.+XeXhX1XF.$.j 0 7 < ",
"_._._._._.(._._.(.x.9.u.M.'.qXaXaXkXhXkXjXjXpXjXfXhX9X0XiXI.f.f.k.k.c.J.v.H.b.g.5.q.j.z.h.f.g.n.z.b.v.v.C.!.4XfX#Xx.X.F 0 p 7 * ",
"_._._./.(._._._.'.N.s.M._.*XsXaXaXhXaXjXjXjXpXjXeXfX9X#XyX+Xn.,.,.r.r.r.p.h.h.q.0.1.r.u.h.h.h.h.h.h.h.u.C.+X1X+Xr.X.p : 7 7 < - ",
"_._._./._._.=X_._.A.R._.sXpXpXaXaXaXaXjXaXjXpXpXfXfX9X9XfXiXx.] %.>.r.r.r.h.h.u.q.1.,.1.1.3.3.1.2.3.u.x.V.D.F.e.Q p 0 p p < - - ",
"_._._._.(.A.A.(./.)._.*XsXpXpXpXhXpXpXhXhXpXpXpXfX1X1X|.+X+Xx.` ] ' ' 7.-.3.3.r.0.2.1.>.%.>.>.| | } &.r.r.e.( p p p p V 3 2 - - ",
".X_.(._.Z.8.8.0./.*XsXsXpXaXsXsXjXaXaXpXhXpXsX<X4X|.I.I.D.W.x.` %.T b T X.' } &.>.>.<.&.| ' ) T T Y R K F 0 0 p 3 p p 7 - < 3 ; ",
"/._._./.8.m m R 9.,XjXjXhXpXpXsXhXsXsXsXeX*X1X4XC.u.x.x.x.F.>.M ) w % 5 q h M R T _ _ E T M r 9 4 7 7 4 : < : = 7 7 7 = = < - = ",
"&X_.m.8.m m r s ! m.W.>XhX<XsXaXaXaXpXqXqX#XW.v.r.y.u.u.x.u._ : z # $ @ @ @ 4 6 z h h h 8 8 & @ = = = < < < = 7 = 3 < 7 < = < = ",
"/.9.{ m 8 s s 2 j ( ;.s.%XjXjXpXrXeX9X1XW.C.u.2.2.2.2.r.h.%.5 # % o $ o o o + o @ @ @ O + # + o @ * * = = < 7 = 7 < = < = 7 7 = ",
"8.R s s 8 a g m s k k Q d.,XjX*X<X<X1X'.V.-.%.} %.) ' *.&.b # @ % = @ O $ O # o O O @ O + @ @ @ O O * * * = * : = = = < < = < < ",
"R g 1 s g a d V p C C z R p.OXhX1X1X|.F.2._ b b M b b _ b : o # = 4 = O o   X O O + + + + + @ + O ; * O * * * * * * = * = = * = ",
"1 a s a 1 a m 1 p p C j k ! p.eX1X|.p.X.F z 0 @ : 0 j z @ # = $ O = , O + o o o o o O + # X + O * * * O * O ; O O * O + = = = * ",
"1 1 g a 1 V g V F p p p F C ..V.|.s._ : @ : : * # 0 7 : O * -   X , , , , +   X . + + + + + X X O ; * * O ; O * * * * * * + = * ",
"g 1 1 g g 1 V Z V C f p p p F e.F.( * = 0 * * : : : $ O : $   . + , * , 1 + . * + X O . o X X + * O O ; * * * * * * * * * * * * ",
"a a a i i d d f p p C p p f F U Q p : = * * = 7 : = @ * . . . . X + * , , , , , + + + + + X X . > + + * * + * + * * * * * * * * ",
"y y a s d i d d V V d d i u u f 7 * * 7 = : = * = = = - - * ; . + + , , 4 1 , , * + + + X + + @ + + * * * * > * = = = - * * * * ",
"8 y f f f i d f C C p i f s 7 = 7 = = , = - - * - * = = - * .   + + , 1 8 1 6 1 = = * * + * * , > + * * > > * > , , - = = 2 * > ",
"< 8 a f i y i i p p p y i i < * = = - . ; * = < * * = = - * . . O + > , 1 8 1 1 7 < = = * * , , * > * * * * > > , , , , , , , , ",
"i s f f f f C C f f d d s i y < = 7 7 , = = * * : = = = = = O O . X * 2 , < < < y < < 2 - * > > * + > > > > > + < > 1 > , > 2 , ",
"8 y 8 y y y y y i i y 3 , - 2 < = 7 , * * ; * - - * * O = O O * . . * - > , < < y 3 7 < < , 2 > > * + > > > > > > > > , < < < < ",
"F f i p d f f d f f f d y 3 < < 7 7 , , 7 - * - * * = : = = * * . ; ; * - , 1 2 1 1 3 < < < 2 < > > > > > < > > 1 < , , < 1 1 1 ",
"=.*.+.O.*.#.*.O.O.#.O.O.O.O.......+...+.+.F - - : p : p p 0 < = ; * * * - = 2 , , < < 1 3 y 1 1 > < > 1 > 1 1 < < 1 1 1 1 1 1 1 "
};
